<?xml version="1.0" encoding="UTF-8"?>
<svg width="60px" height="60px" viewBox="0 0 60 60" version="1.1" xmlns="http://www.w3.org/2000/svg" xmlns:xlink="http://www.w3.org/1999/xlink">
    <!-- Generator: Sketch 52.4 (67378) - http://www.bohemiancoding.com/sketch -->
    <title>icon_作业</title>
    <desc>Created with Sketch.</desc>
    <g id="区域" stroke="none" stroke-width="1" fill="none" fill-rule="evenodd">
        <g id="5作业" transform="translate(-853.000000, -300.000000)" fill-rule="nonzero">
            <g id="icon_作业" transform="translate(853.000000, 300.000000)">
                <path d="M30,60 C13.4314575,60 0,46.5685425 0,30 C0,13.4314575 13.4314575,0 30,0 C46.5685425,0 60,13.4314575 60,30 C60,46.5685425 46.5685425,60 30,60 Z M30,59 C46.0162577,59 59,46.0162577 59,30 C59,13.9837423 46.0162577,1 30,1 C13.9837423,1 1,13.9837423 1,30 C1,46.0162577 13.9837423,59 30,59 Z" id="合并形状" fill="#59A6FF" opacity="0.400000006"></path>
                <path d="M20,17 L40,17 L40,45 L20,45 L20,17 Z M22,23 L22,43 L38,43 L38,23 L22,23 Z M34,29 C34.3855469,28.6144531 35.00625,28.6144531 35.3890625,29.0027344 C35.7746094,29.3855469 35.7746094,30.0089844 35.3917969,30.3945312 L28.6914282,36.5435068 C28.6886938,36.5462411 28.6832251,36.5517099 28.6804907,36.5544443 C28.6148657,36.625538 28.5355688,36.6856943 28.4480688,36.7376474 C28.2949438,36.8251474 28.128147,36.866163 27.9613501,36.866163 C27.6195532,36.866163 27.2859595,36.6856943 27.1054907,36.3685068 L24.2910156,31.9761719 C24.0203125,31.503125 24.184375,30.9042969 24.6574219,30.6335937 C25.1304688,30.3628906 25.7292969,30.5269531 26,31 L28.1746313,34.2712411 L34,29 Z" id="合并形状" fill-opacity="0.6" fill="#3C96FF"></path>
            </g>
        </g>
    </g>
</svg>