<?xml version="1.0" encoding="UTF-8"?>
<svg width="60px" height="60px" viewBox="0 0 60 60" version="1.1" xmlns="http://www.w3.org/2000/svg" xmlns:xlink="http://www.w3.org/1999/xlink">
    <!-- Generator: Sketch 52.4 (67378) - http://www.bohemiancoding.com/sketch -->
    <title>icon_推送</title>
    <desc>Created with Sketch.</desc>
    <g id="区域" stroke="none" stroke-width="1" fill="none" fill-rule="evenodd">
        <g id="3预复习" transform="translate(-443.000000, -300.000000)" fill="#FFFFFF" fill-rule="nonzero">
            <g id="icon_推送" transform="translate(443.000000, 300.000000)">
                <path d="M30,60 C13.4314575,60 0,46.5685425 0,30 C0,13.4314575 13.4314575,0 30,0 C46.5685425,0 60,13.4314575 60,30 C60,46.5685425 46.5685425,60 30,60 Z M30,59 C46.0162577,59 59,46.0162577 59,30 C59,13.9837423 46.0162577,1 30,1 C13.9837423,1 1,13.9837423 1,30 C1,46.0162577 13.9837423,59 30,59 Z" id="合并形状" opacity="0.400000006"></path>
                <path d="M30.0625,43 C36.25,43 40,38.3714286 40,33.7428571 C40,29.6928571 37,26.4142857 38.125,21.0142857 C37,21.4 35.773913,22.5571429 34.75,24.4857143 C33.523913,21.7857143 32.5,18.3142857 32.5,16 C30.25,16.7714286 25.75,23.3285714 25.75,28.3428571 C24.25,27.1857143 23.125,23.3285714 23.875,20.6285714 C22.75,21.7857143 19,27.9571429 19,32.2 C19,38.3709653 23.875,43 30.0625,43 Z" id="路径"></path>
            </g>
        </g>
    </g>
</svg>