<?xml version="1.0" encoding="UTF-8"?>
<svg width="14px" height="14px" viewBox="0 0 14 14" version="1.1" xmlns="http://www.w3.org/2000/svg" xmlns:xlink="http://www.w3.org/1999/xlink">
    <!-- Generator: Sketch 52.4 (67378) - http://www.bohemiancoding.com/sketch -->
    <title>icon/导航/icon_概览</title>
    <desc>Created with Sketch.</desc>
    <defs>
        <path d="M7,0 C10.8664062,0 14,3.2073197 14,7.16469322 C14,9.48062433 12.9267578,11.5404736 11.2615234,12.8488698 C11.1712891,12.9426265 11.046875,13 10.9101562,13 C10.6380859,13 10.4179688,12.774704 10.4179688,12.4962325 C10.4179688,12.3325081 10.4931641,12.1869752 10.6121094,12.0946179 L10.609375,12.0904198 C11.1412109,11.6818084 11.6046875,11.1850377 11.9792969,10.6196986 L11.375,10.2628633 C11.1658203,10.1397201 11.0947266,9.86544672 11.2150391,9.65134553 C11.3353516,9.43724435 11.6033203,9.36447793 11.8125,9.4876211 L12.4167969,9.8444564 C12.7394531,9.16157158 12.9431641,8.40871905 12.9992187,7.61248654 L12.3046875,7.61248654 C12.0626953,7.61248654 11.8671875,7.4123789 11.8671875,7.16469322 C11.8671875,6.91700753 12.0626953,6.71689989 12.3046875,6.71689989 L12.9992187,6.71689989 C12.9431641,5.91926803 12.7394531,5.16221744 12.4140625,4.47793326 L11.8125,4.83336921 C11.6033203,4.95651238 11.3353516,4.88374596 11.2150391,4.66964478 C11.0947266,4.4555436 11.1658203,4.18127018 11.375,4.05812702 L11.9751953,3.70409042 C11.5472656,3.06038751 11.0044922,2.50484392 10.3755859,2.06824543 L10.0269531,2.68675996 C9.90664062,2.90086114 9.63867188,2.97362756 9.42949219,2.85048439 C9.2203125,2.72734123 9.14921875,2.45306781 9.26953125,2.23896663 L9.61816406,1.6204521 C8.95097656,1.29020452 8.2140625,1.08170075 7.4375,1.02432723 L7.4375,1.73519914 C7.4375,1.98288482 7.24199219,2.18299247 7,2.18299247 C6.75800781,2.18299247 6.5625,1.98288482 6.5625,1.73519914 L6.5625,1.02432723 C5.78183594,1.08170075 5.04355469,1.29020452 4.375,1.62325081 L4.72226562,2.23896663 C4.84257813,2.45306781 4.77148438,2.72734123 4.56230469,2.85048439 C4.353125,2.97362756 4.08515625,2.90086114 3.96484375,2.68675996 L3.61894531,2.07244349 C2.99277344,2.50904198 2.45136719,3.06318622 2.02480469,3.70409042 L2.625,4.05812702 C2.83417969,4.18127018 2.90527344,4.4555436 2.78496094,4.66964478 C2.66464844,4.88374596 2.39667969,4.95651238 2.1875,4.83336921 L1.5859375,4.47793326 C1.26191406,5.16361679 1.05683594,5.91926803 1.00078125,6.71689989 L1.6953125,6.71689989 C1.93730469,6.71689989 2.1328125,6.91700753 2.1328125,7.16469322 C2.1328125,7.4123789 1.93730469,7.61248654 1.6953125,7.61248654 L1.00078125,7.61248654 C1.05546875,8.4073197 1.25917969,9.16157158 1.58320313,9.8444564 L2.1875,9.4876211 C2.39667969,9.36447793 2.66464844,9.43724435 2.78496094,9.65134553 C2.90527344,9.86544672 2.83417969,10.1397201 2.625,10.2628633 L2.02070313,10.6196986 C2.38574219,11.1710441 2.83691406,11.6594187 3.35371094,12.0624327 C3.49863281,12.150592 3.59570312,12.3115178 3.59570312,12.4962325 C3.59570312,12.774704 3.37558594,13 3.10351562,13 C2.99003906,13 2.88476562,12.9594187 2.80136719,12.8936491 L2.8,12.8964478 C1.09921875,11.589451 0,9.50861141 0,7.16469322 C0,3.2073197 3.13359375,0 7,0 Z M9.1546875,4.88094726 C9.34472656,4.72841765 9.61953125,4.76340151 9.76855469,4.95791173 C9.91757812,5.15242196 9.88339844,5.43369214 9.69335937,5.58622174 L7.96660156,6.96878364 C7.97890625,7.03035522 7.984375,7.09332616 7.984375,7.1590958 C7.984375,7.71603875 7.54414062,8.16663079 7,8.16663079 C6.45585937,8.16663079 6.015625,7.71603875 6.015625,7.1590958 C6.015625,6.60215285 6.45585937,6.15156082 7,6.15156082 C7.15585937,6.15156082 7.30488281,6.18794403 7.43613281,6.25511302 L9.1546875,4.88094726 Z" id="path-1"></path>
    </defs>
    <g id="icon/导航/icon_概览" stroke="none" stroke-width="1" fill="none" fill-rule="evenodd">
        <mask id="mask-2" fill="white">
            <use xlink:href="#path-1"></use>
        </mask>
        <use id="Mask" fill="#3C96FF" fill-rule="nonzero" xlink:href="#path-1"></use>
        <g id="颜色/主题色" mask="url(#mask-2)" fill="#666666" fill-rule="nonzero">
            <rect id="矩形" x="0" y="0" width="14" height="14"></rect>
        </g>
    </g>
</svg>