<?xml version="1.0" encoding="UTF-8"?>
<svg width="60px" height="60px" viewBox="0 0 60 60" version="1.1" xmlns="http://www.w3.org/2000/svg" xmlns:xlink="http://www.w3.org/1999/xlink">
    <!-- Generator: Sketch 52.4 (67378) - http://www.bohemiancoding.com/sketch -->
    <title>icon_资源</title>
    <desc>Created with Sketch.</desc>
    <g id="区域" stroke="none" stroke-width="1" fill="none" fill-rule="evenodd">
        <g id="3预复习" transform="translate(-853.000000, -300.000000)" fill="#59A6FF" fill-rule="nonzero">
            <g id="icon_资源" transform="translate(853.000000, 300.000000)">
                <path d="M30,60 C13.4314575,60 0,46.5685425 0,30 C0,13.4314575 13.4314575,0 30,0 C46.5685425,0 60,13.4314575 60,30 C60,46.5685425 46.5685425,60 30,60 Z M30,59 C46.0162577,59 59,46.0162577 59,30 C59,13.9837423 46.0162577,1 30,1 C13.9837423,1 1,13.9837423 1,30 C1,46.0162577 13.9837423,59 30,59 Z" id="合并形状" opacity="0.400000006"></path>
                <rect id="矩形" opacity="0.800000012" x="16" y="32" width="12" height="12" rx="2"></rect>
                <rect id="矩形" opacity="0.800000012" x="16" y="16" width="12" height="12" rx="2"></rect>
                <rect id="矩形" opacity="0.800000012" x="32" y="32" width="12" height="12" rx="2"></rect>
                <rect id="矩形" opacity="0.800000012" transform="translate(38.000000, 22.000000) rotate(45.000000) translate(-38.000000, -22.000000) " x="32" y="16" width="12" height="12" rx="2"></rect>
            </g>
        </g>
    </g>
</svg>