<?xml version="1.0" encoding="UTF-8"?>
<svg width="60px" height="60px" viewBox="0 0 60 60" version="1.1" xmlns="http://www.w3.org/2000/svg" xmlns:xlink="http://www.w3.org/1999/xlink">
    <!-- Generator: Sketch 52.4 (67378) - http://www.bohemiancoding.com/sketch -->
    <title>icon_自主学习</title>
    <desc>Created with Sketch.</desc>
    <g id="区域" stroke="none" stroke-width="1" fill="none" fill-rule="evenodd">
        <g id="6学生自主学习" transform="translate(-1263.000000, -426.000000)" fill="#000000" fill-rule="nonzero">
            <g id="分组-2" transform="translate(1263.000000, 416.000000)">
                <g id="icon_自主学习" transform="translate(0.000000, 10.000000)">
                    <path d="M30,60 C13.4314575,60 0,46.5685425 0,30 C0,13.4314575 13.4314575,0 30,0 C46.5685425,0 60,13.4314575 60,30 C60,46.5685425 46.5685425,60 30,60 Z M30,59 C46.0162577,59 59,46.0162577 59,30 C59,13.9837423 46.0162577,1 30,1 C13.9837423,1 1,13.9837423 1,30 C1,46.0162577 13.9837423,59 30,59 Z" id="合并形状" fill-opacity="0.2" opacity="0.400000006"></path>
                    <path d="M34.48883,19 L28.0487929,25.440647 C27.9694993,25.5199487 27.9066114,25.6156577 27.8628632,25.7195703 L24.1340726,35.1566819 C23.9809541,35.5176414 24.0875902,35.8813355 24.3200023,36.1165061 C24.5524143,36.3516767 24.918805,36.4583239 25.2824615,36.3051895 L34.7216417,32.5788512 C34.8255435,32.5350986 34.9185083,32.4722041 35.0005361,32.3929024 L41,26.3928703 L41,39 C41,40.1045695 40.1045695,41 39,41 L21,41 C19.8954305,41 19,40.1045695 19,39 L19,21 C19,19.8954305 19.8954305,19 21,19 L34.48883,19 Z M44.8664819,17.7420692 C45.6348087,18.5104755 45.6293401,19.7628957 44.8610133,20.5313019 L34.0005361,31.3929024 C33.9185083,31.4722041 33.8255435,31.5350986 33.7216417,31.5788512 L27.2824615,34.3051895 C26.918805,34.4583239 26.5524143,34.3516767 26.3200023,34.1165061 C26.0875902,33.8813355 25.9809541,33.5176414 26.1340726,33.1566819 L28.8628632,26.7195703 C28.9066114,26.6156577 28.9694993,26.5199487 29.0487929,26.440647 L39.9092701,15.5790465 C40.6775969,14.8106403 41.9298876,14.8051712 42.6982144,15.5735775 L44.8664819,17.7420692 Z M41.7713005,20.8321015 L43.4720097,19.1312165 L41.301008,16.9709284 L39.6057673,18.6663444 L41.7713005,20.8321015 Z" id="Mask" fill-opacity="0.4"></path>
                </g>
            </g>
        </g>
    </g>
</svg>