<?xml version="1.0" encoding="UTF-8"?>
<svg width="60px" height="60px" viewBox="0 0 60 60" version="1.1" xmlns="http://www.w3.org/2000/svg" xmlns:xlink="http://www.w3.org/1999/xlink">
    <!-- Generator: Sketch 52.4 (67378) - http://www.bohemiancoding.com/sketch -->
    <title>icon_学生</title>
    <desc>Created with Sketch.</desc>
    <g id="区域" stroke="none" stroke-width="1" fill="none" fill-rule="evenodd">
        <g id="6学生自主学习" transform="translate(-365.000000, -426.000000)" fill="#000000" fill-rule="nonzero">
            <g id="分组" transform="translate(365.000000, 416.000000)">
                <g id="icon_学生" transform="translate(0.000000, 10.000000)">
                    <path d="M30,60 C13.4314575,60 0,46.5685425 0,30 C0,13.4314575 13.4314575,0 30,0 C46.5685425,0 60,13.4314575 60,30 C60,46.5685425 46.5685425,60 30,60 Z M30,59 C46.0162577,59 59,46.0162577 59,30 C59,13.9837423 46.0162577,1 30,1 C13.9837423,1 1,13.9837423 1,30 C1,46.0162577 13.9837423,59 30,59 Z" id="合并形状" fill-opacity="0.2" opacity="0.400000006"></path>
                    <path d="M24.3480089,22.9814318 L30,25 L35.5399059,22.6917059 C35.8363124,23.4022601 36,24.1820144 36,25 C36,28.3137085 33.3137085,31 30,31 C26.6862915,31 24,28.3137085 24,25 C24,24.2917854 24.1227028,23.6122295 24.3480089,22.9814318 Z M43,42 C41.1428571,42 18.8571429,42 17,42 C17,34.9123457 22.8202983,31 30,31 C37.1797017,31 43,34.9123457 43,42 Z M20.5,22 C20.7761424,22 21,22.2238576 21,22.5 L21,26.5 C21,26.7761424 20.7761424,27 20.5,27 C20.2238576,27 20,26.7761424 20,26.5 L20,22.5 C20,22.2238576 20.2238576,22 20.5,22 Z M30,17 L40,20 L30,23 L20,20 L30,17 Z" id="合并形状" fill-opacity="0.4"></path>
                </g>
            </g>
        </g>
    </g>
</svg>