<?xml version="1.0" encoding="UTF-8"?>
<svg width="14px" height="14px" viewBox="0 0 14 14" version="1.1" xmlns="http://www.w3.org/2000/svg" xmlns:xlink="http://www.w3.org/1999/xlink">
    <!-- Generator: Sketch 52.4 (67378) - http://www.bohemiancoding.com/sketch -->
    <title>icon/导航/icon_自主学习</title>
    <desc>Created with Sketch.</desc>
    <defs>
        <path d="M10.5240385,7.97115385 C10.7871394,7.97115385 11,8.18401442 11,8.44711538 C11,8.465625 10.9986779,8.4828125 10.9973558,8.5 L11,8.5 L11,13.0480769 C11,13.5742788 10.5742788,14 10.0480769,14 L0.951923077,14 C0.425721154,14 0,13.5742788 0,13.0480769 L0,3.95192308 C0,3.42572115 0.425721154,3 0.951923077,3 L5.92307692,3 C6.18617788,3 6.39903846,3.21286058 6.39903846,3.47596154 C6.39903846,3.7390625 6.18617788,3.95192308 5.92307692,3.95192308 L0.951923077,3.95192308 L0.951923077,13.0480769 L10.0480769,13.0480769 L10.0480769,8.5 L10.0507212,8.5 C10.049399,8.4828125 10.0480769,8.465625 10.0480769,8.44711538 C10.0480769,8.18401442 10.2609375,7.97115385 10.5240385,7.97115385 Z M12.9337891,2.15175781 C13.3179687,2.5359375 13.3152344,3.16210937 12.9310547,3.54628906 L7.50058594,8.97675781 C7.45957031,9.01640625 7.41308594,9.04785156 7.36113281,9.06972656 L4.14140625,10.4328125 C3.95957031,10.509375 3.77636719,10.4560547 3.66015625,10.3384766 C3.54394531,10.2208984 3.490625,10.0390625 3.5671875,9.85859375 L4.93164062,6.64023437 C4.95351562,6.58828125 4.98496094,6.54042969 5.02460937,6.50078125 L10.4550781,1.0703125 C10.8392578,0.686132812 11.4654297,0.683398438 11.8496094,1.06757813 L12.9337891,2.15175781 Z M6.87851563,8.20429687 L10.6902344,4.39257813 L9.60742188,3.30976562 L5.79570313,7.12148438 L5,9 L6.87851563,8.20429687 Z M11.3861328,3.69667969 L12.2365234,2.84628906 L11.1509766,1.76621094 L10.3033203,2.61386719 L11.3861328,3.69667969 Z" id="path-1"></path>
    </defs>
    <g id="icon/导航/icon_自主学习" stroke="none" stroke-width="1" fill="none" fill-rule="evenodd">
        <mask id="mask-2" fill="white">
            <use xlink:href="#path-1"></use>
        </mask>
        <use id="Mask" fill="#666666" fill-rule="nonzero" xlink:href="#path-1"></use>
        <g id="颜色/主题色" mask="url(#mask-2)" fill="#3C96FF" fill-rule="nonzero">
            <rect id="矩形" x="0" y="0" width="14" height="14"></rect>
        </g>
    </g>
</svg>