<?xml version="1.0" encoding="UTF-8"?>
<svg width="14px" height="14px" viewBox="0 0 14 14" version="1.1" xmlns="http://www.w3.org/2000/svg" xmlns:xlink="http://www.w3.org/1999/xlink">
    <!-- Generator: Sketch 52.4 (67378) - http://www.bohemiancoding.com/sketch -->
    <title>icon/导航/icon_备课</title>
    <desc>Created with Sketch.</desc>
    <defs>
        <path d="M11.0357143,0 C11.56875,0 12,0.43125 12,0.964285714 L12,11.0357143 C12,11.56875 11.56875,12 11.0357143,12 L0.964285714,12 C0.43125,12 0,11.56875 0,11.0357143 L0,0.964285714 C0,0.43125 0.43125,0 0.964285714,0 L11.0357143,0 Z M11.0357143,11.0357143 L11.0357143,0.964285714 L0.964285714,0.964285714 L0.964285714,11.0357143 L11.0357143,11.0357143 Z M4.46875,9.96428571 C4.20963542,9.96428571 4,9.74866071 4,9.48214286 C4,9.215625 4.20963542,9 4.46875,9 L8.53125,9 C8.79036458,9 9,9.215625 9,9.48214286 C9,9.74866071 8.79036458,9.96428571 8.53125,9.96428571 L4.46875,9.96428571 Z M4.46875,3.96428571 C4.20963542,3.96428571 4,3.74866071 4,3.48214286 C4,3.215625 4.20963542,3 4.46875,3 L8.53125,3 C8.79036458,3 9,3.215625 9,3.48214286 C9,3.74866071 8.79036458,3.96428571 8.53125,3.96428571 L4.46875,3.96428571 Z M4.46875,6.96428571 C4.20963542,6.96428571 4,6.74866071 4,6.48214286 C4,6.215625 4.20963542,6 4.46875,6 L8.53125,6 C8.79036458,6 9,6.215625 9,6.48214286 C9,6.74866071 8.79036458,6.96428571 8.53125,6.96428571 L4.46875,6.96428571 Z M2.48214286,9.96428571 C2.21586271,9.96428571 2,9.748423 2,9.48214286 C2,9.21586271 2.21586271,9 2.48214286,9 C2.748423,9 2.96428571,9.21586271 2.96428571,9.48214286 C2.96428571,9.748423 2.748423,9.96428571 2.48214286,9.96428571 Z M2.48214286,3.96428571 C2.21586271,3.96428571 2,3.748423 2,3.48214286 C2,3.21586271 2.21586271,3 2.48214286,3 C2.748423,3 2.96428571,3.21586271 2.96428571,3.48214286 C2.96428571,3.748423 2.748423,3.96428571 2.48214286,3.96428571 Z M2.48214286,6.96428571 C2.21586271,6.96428571 2,6.748423 2,6.48214286 C2,6.21586271 2.21586271,6 2.48214286,6 C2.748423,6 2.96428571,6.21586271 2.96428571,6.48214286 C2.96428571,6.748423 2.748423,6.96428571 2.48214286,6.96428571 Z" id="path-1"></path>
    </defs>
    <g id="icon/导航/icon_备课" stroke="none" stroke-width="1" fill="none" fill-rule="evenodd">
        <g id="颜色/666" transform="translate(1.000000, 1.000000)">
            <mask id="mask-2" fill="white">
                <use xlink:href="#path-1"></use>
            </mask>
            <use id="Mask" fill="#666666" fill-rule="nonzero" xlink:href="#path-1"></use>
            <g id="颜色/主题色" mask="url(#mask-2)" fill="#3C96FF" fill-rule="nonzero">
                <g transform="translate(-1.000000, -1.000000)" id="矩形">
                    <rect x="0" y="0" width="14" height="14"></rect>
                </g>
            </g>
        </g>
    </g>
</svg>