<?xml version="1.0" encoding="UTF-8"?>
<svg width="30px" height="30px" viewBox="0 0 30 30" version="1.1" xmlns="http://www.w3.org/2000/svg" xmlns:xlink="http://www.w3.org/1999/xlink">
    <!-- Generator: Sketch 52.4 (67378) - http://www.bohemiancoding.com/sketch -->
    <title>logo</title>
    <desc>Created with Sketch.</desc>
    <defs>
        <polygon id="path-1" points="6.50521303e-18 15 11 11 15 -8.8817842e-16 4 4"></polygon>
    </defs>
    <g id="组件" stroke="none" stroke-width="1" fill="none" fill-rule="evenodd">
        <g id="左导航" transform="translate(-113.000000, -18.000000)">
            <g id="分组-3">
                <g transform="translate(112.000000, 17.000000)">
                    <g id="logo" transform="translate(1.000000, 1.000000)">
                        <path d="M27,15 L30,15 C30,23.2842712 23.2842712,30 15,30 C6.71572875,30 0,23.2842712 0,15 C0,6.71572875 6.71572875,0 15,0 L15,3 L15,1 C7.2680135,1 1,7.2680135 1,15 L3,15 C3,21.627417 8.372583,27 15,27 L15,29 C22.7319865,29 29,22.7319865 29,15 L27,15 Z" id="合并形状" fill="#3C96FF" fill-rule="nonzero"></path>
                        <path d="M15,19 C12.790861,19 11,17.209139 11,15 C11,12.790861 12.790861,11 15,11 C17.209139,11 19,12.790861 19,15 C19,17.209139 17.209139,19 15,19 Z M14,0 L16,0 L16,6 L14,6 L14,0 Z M14,24 L16,24 L16,29 L14,29 L14,24 Z M1,14 L6,14 L6,16 L1,16 L1,14 Z M24,14 L30,14 L30,16 L24,16 L24,14 Z" id="椭圆形-2" fill="#3C96FF" fill-rule="nonzero"></path>
                        <g id="路径-2" transform="translate(15.000000, 0.000000)">
                            <mask id="mask-2" fill="white">
                                <use xlink:href="#path-1"></use>
                            </mask>
                            <use id="Mask" fill="#3C96FF" fill-rule="nonzero" xlink:href="#path-1"></use>
                            <polygon fill-opacity="0.1" fill="#000000" fill-rule="nonzero" mask="url(#mask-2)" points="16 -1 -1 16.0099354 16 15.6825844"></polygon>
                        </g>
                    </g>
                </g>
            </g>
        </g>
    </g>
</svg>